<svg width="127" height="159" viewBox="0 0 127 159" fill="none" xmlns="http://www.w3.org/2000/svg">
<g clip-path="url(#clip0_194_10)">
<path d="M68.2329 156.667C82.8804 144.02 126.5 103.07 126.5 63.75C126.5 47.0414 119.863 31.0171 108.048 19.2023C96.2329 7.38748 80.2086 0.75 63.5 0.75C46.7914 0.75 30.7671 7.38748 18.9523 19.2023C7.13748 31.0171 0.5 47.0414 0.5 63.75C0.5 103.07 44.1196 144.02 58.7671 156.667C60.1317 157.693 61.7927 158.248 63.5 158.248C65.2073 158.248 66.8683 157.693 68.2329 156.667Z" fill="#004E00"/>
<path d="M63.5 114C91.3904 114 114 91.3904 114 63.5C114 35.6096 91.3904 13 63.5 13C35.6096 13 13 35.6096 13 63.5C13 91.3904 35.6096 114 63.5 114Z" fill="white" stroke="white" stroke-width="2" stroke-linecap="round" stroke-linejoin="round"/>
<path d="M82.9219 78.3281H91.4219V75.4062C91.4219 75.1949 91.3379 74.9922 91.1885 74.8428C91.039 74.6933 90.8363 74.6094 90.625 74.6094H82.9219V78.3281Z" fill="#004E00"/>
<path d="M43.0781 74.6094H35.375C35.1637 74.6094 34.961 74.6933 34.8115 74.8428C34.6621 74.9922 34.5781 75.1949 34.5781 75.4062V78.3281H43.0781V74.6094Z" fill="#004E00"/>
<path d="M44.6719 74.3352V78.3281H81.3281V74.3352C75.5732 71.7151 69.3233 70.3594 63 70.3594C56.6767 70.3594 50.4268 71.7151 44.6719 74.3352Z" fill="#004E00"/>
<path d="M34.5781 79.9219H91.4219V85.7656H34.5781V79.9219Z" fill="#004E00"/>
<path d="M91.9531 87.3594H34.0469C33.0606 87.3594 32.1147 87.7512 31.4173 88.4486C30.7199 89.146 30.3281 90.0919 30.3281 91.0781V91.875C30.3281 92.0863 30.4121 92.289 30.5615 92.4385C30.711 92.5879 30.9137 92.6719 31.125 92.6719H94.875C95.0863 92.6719 95.289 92.5879 95.4385 92.4385C95.5879 92.289 95.6719 92.0863 95.6719 91.875V91.0781C95.6719 90.0919 95.2801 89.146 94.5827 88.4486C93.8853 87.7512 92.9394 87.3594 91.9531 87.3594Z" fill="#004E00"/>
<path d="M73.2244 33.4078C69.5809 32.2651 66.2668 30.2605 63.5631 27.5641C63.4892 27.49 63.4014 27.4313 63.3048 27.3913C63.2081 27.3512 63.1046 27.3306 63 27.3306C62.8954 27.3306 62.7918 27.3512 62.6952 27.3913C62.5985 27.4313 62.5107 27.49 62.4368 27.5641C59.733 30.2603 56.4189 32.2648 52.7755 33.4078C49.3426 34.4684 46.3409 36.6033 44.2126 39.4981C42.0842 42.3929 40.9416 45.8947 40.9531 49.4877V73.0157H43.6986C44.1937 72.7862 44.6995 72.5801 45.2031 72.3697V49.4877C45.1937 46.8011 46.0476 44.1825 47.639 42.0178C49.2303 39.8532 51.4749 38.257 54.042 37.4644C57.0978 36.5109 59.9662 35.0372 62.5208 33.1082C62.6587 33.0047 62.8265 32.9488 62.9989 32.9488C63.1713 32.9488 63.3391 33.0047 63.477 33.1082C66.0317 35.0372 68.9 36.5109 71.9558 37.4644C74.5233 38.2566 76.7683 39.8526 78.3601 42.0173C79.9518 44.182 80.8061 46.8008 80.7968 49.4877V72.3686C81.3005 72.5811 81.8062 72.7862 82.3013 73.0157H85.0468V49.4877C85.0583 45.8947 83.9157 42.3929 81.7874 39.4981C79.659 36.6033 76.6573 34.4684 73.2244 33.4078Z" fill="#004E00"/>
<path d="M68.5686 53.6378C66.9462 54.1256 65.2088 54.0698 63.6211 53.479C62.0333 52.8883 60.682 51.7948 59.7731 50.3652C58.8642 48.9355 58.4473 47.248 58.586 45.5596C58.7247 43.8711 59.4113 42.2742 60.5414 41.0121C59.4347 41.3855 58.4274 42.0057 57.5958 42.8257C56.7641 43.6457 56.1298 44.6442 55.7408 45.7454C55.3518 46.8467 55.2183 48.0221 55.3505 49.1825C55.4827 50.343 55.877 51.4582 56.5036 52.4438C57.1303 53.4295 57.9728 54.2597 58.9676 54.8717C59.9624 55.4838 61.0833 55.8616 62.2456 55.9766C63.4079 56.0916 64.5811 55.9408 65.6765 55.5356C66.7719 55.1304 67.7609 54.4815 68.5686 53.6378Z" fill="#004E00"/>
<path d="M65.6064 46.7974L65.4502 47.7144L66.2726 47.2819C66.3872 47.2216 66.5149 47.1901 66.6444 47.1901C66.774 47.1901 66.9016 47.2216 67.0163 47.2819L67.8387 47.7144L67.6814 46.7995C67.6595 46.6722 67.6688 46.5415 67.7086 46.4186C67.7484 46.2957 67.8175 46.1843 67.9099 46.094L68.575 45.4449L67.6559 45.312C67.5283 45.2933 67.4071 45.2439 67.3027 45.168C67.1983 45.0921 67.1139 44.9921 67.0567 44.8764L66.6455 44.0424L66.2343 44.8764C66.1768 44.992 66.0921 45.092 65.9876 45.1679C65.8831 45.2437 65.7618 45.2932 65.634 45.312L64.7139 45.4459L65.379 46.094C65.4711 46.184 65.54 46.2951 65.5796 46.4176C65.6192 46.5402 65.6284 46.6705 65.6064 46.7974Z" fill="#004E00"/>
<path d="M71.4819 38.9858C68.4431 38.0378 65.5785 36.6024 62.9999 34.7358C60.4214 36.6024 57.5568 38.0378 54.518 38.9858C52.2759 39.6784 50.3155 41.0727 48.9254 42.9633C47.5354 44.854 46.7892 47.141 46.7968 49.4876V71.7363C57.2359 67.7761 68.764 67.7761 79.2031 71.7363V49.4876C79.2106 47.141 78.4645 44.854 77.0744 42.9633C75.6844 41.0727 73.724 39.6784 71.4819 38.9858ZM65.9282 41.8886C65.994 41.7553 66.0958 41.643 66.2221 41.5646C66.3483 41.4861 66.494 41.4445 66.6427 41.4445C66.7914 41.4445 66.9371 41.4861 67.0634 41.5646C67.1896 41.643 67.2914 41.7553 67.3572 41.8886L68.2976 43.7937L70.4002 44.0997C70.5474 44.121 70.6856 44.1831 70.7992 44.2789C70.9129 44.3747 70.9975 44.5004 71.0435 44.6418C71.0895 44.7831 71.095 44.9346 71.0595 45.0789C71.0239 45.2232 70.9486 45.3548 70.8422 45.4586L69.3197 46.9408L69.6799 49.035C69.7048 49.1816 69.6882 49.3322 69.6321 49.4699C69.576 49.6076 69.4825 49.7269 69.3621 49.8142C69.2418 49.9016 69.0995 49.9537 68.9512 49.9645C68.8029 49.9753 68.6545 49.9444 68.5228 49.8754L66.6432 48.8873L64.7616 49.8754C64.6299 49.9446 64.4816 49.9755 64.3332 49.9648C64.1849 49.954 64.0426 49.902 63.9223 49.8145C63.802 49.7271 63.7086 49.6077 63.6527 49.47C63.5967 49.3322 63.5804 49.1815 63.6056 49.035L63.9647 46.9408L62.4442 45.4586C62.338 45.3547 62.2628 45.2232 62.2272 45.0789C62.1917 44.9346 62.1971 44.7832 62.2429 44.6418C62.2888 44.5005 62.3732 44.3747 62.4867 44.2787C62.6001 44.1827 62.7382 44.1203 62.8852 44.0986L64.9879 43.7937L65.9282 41.8886ZM55.5624 66.1093H52.3749C52.1636 66.1093 51.9609 66.0254 51.8115 65.8759C51.662 65.7265 51.5781 65.5238 51.5781 65.3125C51.5781 65.1011 51.662 64.8984 51.8115 64.749C51.9609 64.5995 52.1636 64.5156 52.3749 64.5156H55.5624C55.7738 64.5156 55.9765 64.5995 56.1259 64.749C56.2754 64.8984 56.3593 65.1011 56.3593 65.3125C56.3593 65.5238 56.2754 65.7265 56.1259 65.8759C55.9765 66.0254 55.7738 66.1093 55.5624 66.1093ZM55.5624 61.8593H52.3749C52.1636 61.8593 51.9609 61.7754 51.8115 61.6259C51.662 61.4765 51.5781 61.2738 51.5781 61.0625C51.5781 60.8511 51.662 60.6484 51.8115 60.499C51.9609 60.3495 52.1636 60.2656 52.3749 60.2656H55.5624C55.7738 60.2656 55.9765 60.3495 56.1259 60.499C56.2754 60.6484 56.3593 60.8511 56.3593 61.0625C56.3593 61.2738 56.2754 61.4765 56.1259 61.6259C55.9765 61.7754 55.7738 61.8593 55.5624 61.8593ZM53.7031 48.3125C53.7059 45.8476 54.6863 43.4846 56.4292 41.7417C58.1721 39.9988 60.5351 39.0184 62.9999 39.0156C63.1211 39.0156 63.2411 39.023 63.3601 39.0315L63.494 39.039C63.6723 39.0482 63.8424 39.1171 63.9768 39.2345C64.1113 39.352 64.2025 39.5112 64.2357 39.6866C64.2689 39.862 64.2422 40.0435 64.1599 40.202C64.0777 40.3605 63.9445 40.4867 63.7819 40.5605C62.975 40.926 62.256 41.4608 61.6737 42.1285C61.0915 42.7962 60.6596 43.5813 60.4072 44.4305C60.1549 45.2798 60.0881 46.1733 60.2112 47.0506C60.3344 47.9279 60.6447 48.7685 61.1211 49.5154C61.5975 50.2624 62.2289 50.8982 62.9725 51.3797C63.7161 51.8613 64.5545 52.1775 65.4309 52.3067C66.3074 52.436 67.2014 52.3753 68.0523 52.1289C68.9033 51.8825 69.6913 51.456 70.3631 50.8784C70.4985 50.7626 70.6687 50.6956 70.8467 50.6879C71.0247 50.6803 71.2001 50.7325 71.3449 50.8362C71.4898 50.9399 71.5957 51.0892 71.6457 51.2602C71.6958 51.4311 71.6871 51.6139 71.6211 51.7794C70.8165 53.783 69.3394 55.444 67.4435 56.477C65.5475 57.5101 63.3511 57.8508 61.2313 57.4406C59.1115 57.0305 57.2006 55.8951 55.8269 54.2293C54.4531 52.5636 53.7022 50.4716 53.7031 48.3125ZM73.6249 66.1093H59.8124C59.6011 66.1093 59.3984 66.0254 59.249 65.8759C59.0995 65.7265 59.0156 65.5238 59.0156 65.3125C59.0156 65.1011 59.0995 64.8984 59.249 64.749C59.3984 64.5995 59.6011 64.5156 59.8124 64.5156H73.6249C73.8363 64.5156 74.039 64.5995 74.1884 64.749C74.3379 64.8984 74.4218 65.1011 74.4218 65.3125C74.4218 65.5238 74.3379 65.7265 74.1884 65.8759C74.039 66.0254 73.8363 66.1093 73.6249 66.1093ZM73.6249 61.8593H59.8124C59.6011 61.8593 59.3984 61.7754 59.249 61.6259C59.0995 61.4765 59.0156 61.2738 59.0156 61.0625C59.0156 60.8511 59.0995 60.6484 59.249 60.499C59.3984 60.3495 59.6011 60.2656 59.8124 60.2656H73.6249C73.8363 60.2656 74.039 60.3495 74.1884 60.499C74.3379 60.6484 74.4218 60.8511 74.4218 61.0625C74.4218 61.2738 74.3379 61.4765 74.1884 61.6259C74.039 61.7754 73.8363 61.8593 73.6249 61.8593Z" fill="#004E00"/>
</g>
<defs>
<clipPath id="clip0_194_10">
<rect width="127" height="159" fill="white"/>
</clipPath>
</defs>
</svg>
