<svg width="127" height="159" viewBox="0 0 127 159" fill="none" xmlns="http://www.w3.org/2000/svg">
<g clip-path="url(#clip0_194_39)">
<path d="M68.2329 156.667C82.8804 144.02 126.5 103.07 126.5 63.75C126.5 47.0414 119.863 31.0171 108.048 19.2023C96.2329 7.38748 80.2086 0.75 63.5 0.75C46.7914 0.75 30.7671 7.38748 18.9523 19.2023C7.13748 31.0171 0.5 47.0414 0.5 63.75C0.5 103.07 44.1196 144.02 58.7671 156.667C60.1317 157.693 61.7927 158.248 63.5 158.248C65.2073 158.248 66.8683 157.693 68.2329 156.667Z" fill="#1C3C1C"/>
<path d="M63.5 114C91.3904 114 114 91.3904 114 63.5C114 35.6096 91.3904 13 63.5 13C35.6096 13 13 35.6096 13 63.5C13 91.3904 35.6096 114 63.5 114Z" fill="white" stroke="white" stroke-width="2" stroke-linecap="round" stroke-linejoin="round"/>
<path d="M51.6666 34.5L63 57.1667L77.1666 43L91.3333 85.5H34.6666L51.6666 34.5Z" fill="#1C3C1C" stroke="#1C3C1C" stroke-width="5.66667" stroke-linecap="round" stroke-linejoin="round"/>
<path d="M40.73 68.7267C48.1533 64.2783 55.5766 64.675 63 69.9167C70.7633 75.4133 78.555 75.5833 86.3183 70.455" stroke="white" stroke-width="5.66667" stroke-linecap="round" stroke-linejoin="round"/>
</g>
<defs>
<clipPath id="clip0_194_39">
<rect width="127" height="159" fill="white"/>
</clipPath>
</defs>
</svg>
