<svg width="127" height="159" viewBox="0 0 127 159" fill="none" xmlns="http://www.w3.org/2000/svg">
<g clip-path="url(#clip0_193_2)">
<path d="M68.2329 156.667C82.8804 144.02 126.5 103.07 126.5 63.75C126.5 47.0414 119.863 31.0171 108.048 19.2023C96.2329 7.38748 80.2086 0.75 63.5 0.75C46.7914 0.75 30.7671 7.38748 18.9523 19.2023C7.13748 31.0171 0.5 47.0414 0.5 63.75C0.5 103.07 44.1196 144.02 58.7671 156.667C60.1317 157.693 61.7927 158.248 63.5 158.248C65.2073 158.248 66.8683 157.693 68.2329 156.667Z" fill="#002400"/>
<path d="M63.5 114C91.3904 114 114 91.3904 114 63.5C114 35.6096 91.3904 13 63.5 13C35.6096 13 13 35.6096 13 63.5C13 91.3904 35.6096 114 63.5 114Z" fill="white" stroke="white" stroke-width="2" stroke-linecap="round" stroke-linejoin="round"/>
<path d="M62.3069 28.3644C62.1843 28.3604 62.0566 28.3724 61.925 28.4057C58.2115 29.361 55.5667 32.7572 55.5625 36.6255C55.5625 40.5728 58.2817 43.8917 61.9396 44.8392V46.9289C59.588 50.5939 54.3152 53.0427 49.3826 56.1323C46.8655 57.709 44.4393 59.483 42.6216 61.8039C40.8039 64.1248 39.625 67.0212 39.625 70.6277C39.625 75.4197 41.0016 78.8911 42.5303 81.2465H83.4656C84.9955 78.8911 86.3792 75.4197 86.3792 70.6277C86.3792 67.0212 85.192 64.1248 83.3743 61.8039C81.5565 59.483 79.1386 57.709 76.6216 56.1323C71.6946 53.0462 66.4204 50.5995 64.0646 46.9414V45.1193C67.9069 45.1153 71.2593 42.526 72.2533 38.8335C72.7889 37.7944 71.4983 36.7782 70.6139 37.5427C69.6656 38.3199 68.4761 38.7513 67.25 38.7527C64.3034 38.7527 61.9396 36.3806 61.9396 33.434C61.9062 32.1715 62.4463 30.9719 63.139 30.0763C63.7416 29.2973 63.1652 28.3963 62.3069 28.3644ZM42.8084 83.3715C41.0609 83.3715 39.625 84.8178 39.625 86.5653V90.807C39.6239 91.0888 39.7348 91.3595 39.9333 91.5595C40.1318 91.7595 40.4016 91.8726 40.6834 91.8737H85.3125C85.4527 91.8742 85.5917 91.847 85.7213 91.7936C85.851 91.7401 85.9688 91.6616 86.068 91.5624C86.1671 91.4633 86.2457 91.3455 86.2991 91.2159C86.3525 91.0862 86.3797 90.9472 86.3792 90.807V86.5653C86.3792 84.8178 84.935 83.3715 83.1875 83.3715H42.8084Z" fill="#002400"/>
</g>
<defs>
<clipPath id="clip0_193_2">
<rect width="127" height="159" fill="white"/>
</clipPath>
</defs>
</svg>
